<svg width="16" height="16" viewBox="0 0 16 16" fill="none" xmlns="http://www.w3.org/2000/svg">
<g clip-path="url(#clip0_11798_135131)">
<path d="M11.191 5.47559L8.56431 8.05781C8.28096 7.92132 7.95849 7.88939 7.65388 7.96765C7.34927 8.04592 7.08213 8.22934 6.89967 8.48551C6.71721 8.74168 6.63117 9.0541 6.65677 9.36756C6.68236 9.68102 6.81794 9.97534 7.03954 10.1985C7.26115 10.4217 7.5545 10.5593 7.86778 10.5872C8.18105 10.615 8.49407 10.5311 8.75152 10.3505C9.00897 10.1698 9.19428 9.90401 9.27469 9.59996C9.35511 9.29591 9.32545 8.97322 9.19097 8.68892L11.8221 6.1067L11.191 5.47559Z" fill="white"/>
<path d="M7.99989 1.88892C6.6011 1.88732 5.23106 2.28605 4.05158 3.03802C2.87211 3.78999 1.93246 4.86379 1.34362 6.13261C0.754781 7.40142 0.54134 8.81224 0.728507 10.1985C0.915675 11.5847 1.49563 12.8884 2.39989 13.9556L2.53322 14.1111H13.4666L13.5999 13.9556C14.5041 12.8884 15.0841 11.5847 15.2713 10.1985C15.4584 8.81224 15.245 7.40142 14.6562 6.13261C14.0673 4.86379 13.1277 3.78999 11.9482 3.03802C10.7687 2.28605 9.39868 1.88732 7.99989 1.88892ZM13.0399 13.2223H2.95989C2.16241 12.2243 1.68111 11.011 1.57767 9.73781H3.111V8.84892H1.57767C1.65209 7.43769 2.1912 6.0907 3.111 5.01781L4.19989 6.1067L4.82655 5.48003L3.74655 4.3867C4.80578 3.45049 6.14501 2.89105 7.55544 2.79559V4.35114H8.44433V2.80003C10.0023 2.91302 11.4659 3.5892 12.5619 4.70231C13.6578 5.81542 14.3111 7.28936 14.3999 8.84892H12.8532V9.73781H14.4221C14.3187 11.011 13.8374 12.2243 13.0399 13.2223Z" fill="white"/>
</g>
<defs>
<clipPath id="clip0_11798_135131">
<rect width="16" height="16" fill="white"/>
</clipPath>
</defs>
</svg>
