<svg width="16" height="16" viewBox="0 0 16 16" fill="none" xmlns="http://www.w3.org/2000/svg">
<path d="M10.1326 6.62937C9.84363 6.35562 9.65766 5.99073 9.60597 5.59603L9.3373 3.5407L7.51663 4.53137C7.16681 4.72166 6.76212 4.7857 6.37063 4.7127L4.3333 4.33337L4.7133 6.3707C4.7861 6.76226 4.72183 7.16695 4.5313 7.5167L3.54063 9.3367L5.59597 9.60537C5.99067 9.65706 6.35555 9.84303 6.6293 10.132L8.05463 11.6374L8.9453 9.76603C9.11626 9.40641 9.40582 9.11661 9.7653 8.94537L11.6373 8.0547L10.1326 6.62937ZM10.1493 10.3387L8.67397 13.4387C8.64606 13.4973 8.6043 13.5483 8.5523 13.5871C8.5003 13.626 8.43962 13.6516 8.3755 13.6618C8.31138 13.672 8.24575 13.6664 8.18427 13.6455C8.12279 13.6246 8.06732 13.5891 8.02263 13.542L5.6613 11.0494C5.59804 10.9827 5.51376 10.9399 5.42263 10.928L2.01863 10.4827C1.95415 10.4744 1.89268 10.4504 1.83953 10.413C1.78638 10.3755 1.74316 10.3257 1.71362 10.2678C1.68407 10.2099 1.66908 10.1456 1.66996 10.0806C1.67083 10.0156 1.68754 9.9518 1.71863 9.8947L3.35997 6.88003C3.40398 6.79926 3.41881 6.70579 3.40197 6.61537L2.7733 3.24003C2.76136 3.17614 2.76517 3.11031 2.7844 3.04822C2.80363 2.98614 2.83769 2.92968 2.88365 2.88372C2.92961 2.83776 2.98607 2.80369 3.04816 2.78447C3.11024 2.76524 3.17608 2.76143 3.23997 2.77337L6.61463 3.40203C6.70506 3.41888 6.79853 3.40405 6.8793 3.36003L9.89463 1.71937C9.95173 1.68827 10.0155 1.67156 10.0806 1.67069C10.1456 1.66982 10.2098 1.6848 10.2677 1.71435C10.3256 1.7439 10.3755 1.78712 10.4129 1.84026C10.4504 1.89341 10.4743 1.95489 10.4826 2.01937L10.928 5.4227C10.9398 5.51383 10.9826 5.59811 11.0493 5.66137L13.542 8.0227C13.5891 8.06738 13.6246 8.12286 13.6454 8.18433C13.6663 8.24581 13.6719 8.31144 13.6617 8.37556C13.6516 8.43968 13.6259 8.50036 13.5871 8.55236C13.5482 8.60436 13.4972 8.64612 13.4386 8.67403L10.3386 10.1494C10.2556 10.1889 10.1888 10.2557 10.1493 10.3387ZM10.6806 11.6234L11.6233 10.6807L14.4513 13.5087L13.5086 14.4514L10.6806 11.6234Z" fill="white"/>
</svg>
