<svg width="16" height="16" viewBox="0 0 16 16" fill="none" xmlns="http://www.w3.org/2000/svg">
<path d="M8.0013 10.6667C8.35492 10.6667 8.69406 10.8072 8.94411 11.0573C9.19416 11.3073 9.33464 11.6465 9.33464 12.0001C9.33464 12.3537 9.19416 12.6928 8.94411 12.9429C8.69406 13.1929 8.35492 13.3334 8.0013 13.3334C7.64768 13.3334 7.30854 13.1929 7.05849 12.9429C6.80844 12.6928 6.66797 12.3537 6.66797 12.0001C6.66797 11.6465 6.80844 11.3073 7.05849 11.0573C7.30854 10.8072 7.64768 10.6667 8.0013 10.6667ZM8.0013 6.66675C8.35492 6.66675 8.69406 6.80722 8.94411 7.05727C9.19416 7.30732 9.33464 7.64646 9.33464 8.00008C9.33464 8.3537 9.19416 8.69284 8.94411 8.94289C8.69406 9.19294 8.35492 9.33342 8.0013 9.33342C7.64768 9.33342 7.30854 9.19294 7.05849 8.94289C6.80844 8.69284 6.66797 8.3537 6.66797 8.00008C6.66797 7.64646 6.80844 7.30732 7.05849 7.05727C7.30854 6.80722 7.64768 6.66675 8.0013 6.66675ZM8.0013 2.66675C8.35492 2.66675 8.69406 2.80722 8.94411 3.05727C9.19416 3.30732 9.33464 3.64646 9.33464 4.00008C9.33464 4.3537 9.19416 4.69284 8.94411 4.94289C8.69406 5.19294 8.35492 5.33341 8.0013 5.33341C7.64768 5.33341 7.30854 5.19294 7.05849 4.94289C6.80844 4.69284 6.66797 4.3537 6.66797 4.00008C6.66797 3.64646 6.80844 3.30732 7.05849 3.05727C7.30854 2.80722 7.64768 2.66675 8.0013 2.66675Z" fill="white"/>
</svg>
