<svg width="16" height="16" viewBox="0 0 16 16" fill="none" xmlns="http://www.w3.org/2000/svg">
<path d="M11.6662 8.87139L5.04823 2.43806C4.9528 2.34528 4.8394 2.273 4.715 2.22567C4.5906 2.17833 4.45784 2.15695 4.32487 2.16281C4.1919 2.16868 4.06154 2.20169 3.94179 2.2598C3.82205 2.31791 3.71546 2.3999 3.62857 2.50072C3.445 2.7139 3.34911 2.98877 3.36025 3.26987C3.37138 3.55098 3.48871 3.8174 3.68857 4.01539L7.0299 7.32539" stroke="white" stroke-linecap="round"/>
<path d="M7.02994 7.32543L3.3926 3.71843C3.18468 3.51227 2.90659 3.39221 2.61396 3.38226C2.32132 3.37231 2.03572 3.47321 1.81427 3.66476C1.70985 3.7551 1.62504 3.86588 1.56509 3.99026C1.50514 4.11464 1.4713 4.24998 1.46568 4.38794C1.46006 4.52591 1.48277 4.66356 1.5324 4.7924C1.58204 4.92125 1.65755 5.03856 1.75427 5.13709L5.4186 8.87143" stroke="white" stroke-linecap="round" stroke-linejoin="round"/>
<path d="M5.41656 8.87142L3.33156 6.83342C3.12932 6.62689 2.85389 6.5083 2.56487 6.50331C2.27585 6.49832 1.99649 6.60733 1.78723 6.80675C1.68431 6.90486 1.60182 7.02236 1.54452 7.15249C1.48721 7.28262 1.45623 7.4228 1.45335 7.56496C1.45046 7.70712 1.47574 7.84845 1.52773 7.98079C1.57971 8.11314 1.65737 8.23389 1.75623 8.33608C4.8329 11.5147 6.42956 13.0161 7.02856 13.5177C7.99823 14.3301 9.9099 14.6667 10.9082 14.0001C11.9066 13.3334 12.8089 12.3847 13.2372 11.4431C13.4922 10.8821 13.9872 9.15308 14.7232 6.25608C14.7593 6.11389 14.7667 5.96592 14.7449 5.82085C14.723 5.67578 14.6724 5.53654 14.596 5.41128C14.5197 5.28603 14.419 5.1773 14.3001 5.09146C14.1811 5.00562 14.0462 4.94441 13.9032 4.91142C13.6092 4.84345 13.3003 4.89205 13.0414 5.047C12.7825 5.20195 12.5936 5.4512 12.5146 5.74242L11.6649 8.87142M10.5702 4.22208C9.85474 3.15383 8.83991 2.32047 7.6529 1.82642M1.72956 11.2587C2.38822 12.3629 3.35804 13.2482 4.51756 13.8037" stroke="white" stroke-linecap="round"/>
</svg>
