<svg width="25" height="25" viewBox="0 0 25 25" fill="none" xmlns="http://www.w3.org/2000/svg">
<path fill-rule="evenodd" clip-rule="evenodd" d="M23.8333 12.3017C23.8333 18.3768 18.9084 23.3017 12.8333 23.3017C6.75812 23.3017 1.83325 18.3768 1.83325 12.3017C1.83325 6.22656 6.75812 1.3017 12.8333 1.3017C18.9084 1.3017 23.8333 6.22656 23.8333 12.3017ZM24.8333 12.3017C24.8333 18.9291 19.4607 24.3017 12.8333 24.3017C6.20583 24.3017 0.833252 18.9291 0.833252 12.3017C0.833252 5.67428 6.20583 0.301697 12.8333 0.301697C19.4607 0.301697 24.8333 5.67428 24.8333 12.3017ZM17.3937 11.5396L13.3873 7.74729C13.2659 7.63237 13.1192 7.57491 12.9472 7.57491C12.7752 7.57491 12.6336 7.63237 12.5223 7.74729C12.4009 7.85264 12.3426 7.98671 12.3475 8.14951C12.3527 8.31231 12.411 8.44639 12.5223 8.55173L15.4968 11.3673H8.71316C8.54116 11.3673 8.39689 11.4224 8.28034 11.5327C8.1642 11.6427 8.10612 11.7791 8.10612 11.9419C8.10612 12.1047 8.1642 12.2412 8.28034 12.3516C8.39689 12.4615 8.54116 12.5165 8.71316 12.5165H15.4968L12.5223 15.332C12.4009 15.4469 12.3426 15.5835 12.3475 15.7417C12.3527 15.8995 12.4161 16.0311 12.5375 16.1364C12.6589 16.2514 12.8031 16.3065 12.9703 16.3019C13.137 16.2969 13.276 16.2418 13.3873 16.1364L17.3937 12.3441C17.4544 12.2866 17.4975 12.2244 17.523 12.1573C17.5481 12.0903 17.5607 12.0185 17.5607 11.9419C17.5607 11.8653 17.5481 11.7934 17.523 11.7264C17.4975 11.6594 17.4544 11.5971 17.3937 11.5396Z" fill="white"/>
</svg>
