<svg width="16" height="16" viewBox="0 0 16 16" fill="none" xmlns="http://www.w3.org/2000/svg">
<path d="M4 6C4 7.06087 4.42143 8.07828 5.17157 8.82843C5.92172 9.57857 6.93913 10 8 10C9.06087 10 10.0783 9.57857 10.8284 8.82843C11.5786 8.07828 12 7.06087 12 6C12 4.93913 11.5786 3.92172 10.8284 3.17157C10.0783 2.42143 9.06087 2 8 2C6.93913 2 5.92172 2.42143 5.17157 3.17157C4.42143 3.92172 4 4.93913 4 6Z" stroke="white" stroke-linecap="round" stroke-linejoin="round"/>
<path d="M8 10C8.88867 9.778 9.33333 8.44467 9.33333 6C9.33333 3.55533 8.88867 2.222 8 2C7.11133 2.222 6.66667 3.55533 6.66667 6C6.66667 8.44467 7.11133 9.778 8 10ZM8 10V11.3333M4 6H12M2 12.6667H6.66667M6.66667 12.6667C6.66667 13.0203 6.80714 13.3594 7.05719 13.6095C7.30724 13.8595 7.64638 14 8 14C8.35362 14 8.69276 13.8595 8.94281 13.6095C9.19286 13.3594 9.33333 13.0203 9.33333 12.6667M6.66667 12.6667C6.66667 12.313 6.80714 11.9739 7.05719 11.7239C7.30724 11.4738 7.64638 11.3333 8 11.3333M9.33333 12.6667H14M9.33333 12.6667C9.33333 12.313 9.19286 11.9739 8.94281 11.7239C8.69276 11.4738 8.35362 11.3333 8 11.3333" stroke="white" stroke-linecap="round" stroke-linejoin="round"/>
</svg>
